#!OML:ASF E:\emotionWalksFemale\Project 1\Capture day 1\Session 1\Female1.ASF
:FULLY-SPECIFIED
:DEGREES
1827
root 8.66581 15.2232 41.1475 365.38 -187.08 -357.541
lowerback 6.22741 -1.43786 -0.731033
upperback -5.24307 -1.73505 1.49834
thorax -8.97139 -0.678423 2.229
lowerneck -9.88385 3.26756 -1.31771
upperneck 12.4185 4.89696 -0.749709
head 5.35312 2.34732 0.351537
rclavicle -1.00091e-014 7.26806e-016
rhumerus -48.9785 3.88751 -81.9743
rradius 31.1268
rwrist 20.8451
rhand -2.83567 -51.2894
rfingers 7.12502
rthumb -157.128 100.047
lclavicle -1.00091e-014 7.26806e-016
lhumerus -25.133 -15.5975 88.5575
lradius 57.7455
lwrist -4.00671
lhand -15.9591 327.604
lfingers 7.12502
lthumb 10.2396 -2.6656
rfemur -11.5618 22.1837 22.9402
rtibia 27.4472
rfoot -27.2208 -30.6835
rtoes -1.78647
lfemur -11.6936 -21.7684 -23.2316
ltibia 29.8443
lfoot -30.507 21.6486
ltoes -14.1096
1828
root 8.68474 15.2185 41.1433 365.276 -186.779 -357.536
lowerback 6.07952 -1.4867 -0.694302
upperback -5.14098 -1.79268 1.59015
thorax -8.76859 -0.71013 2.30598
lowerneck -9.98679 3.53899 -1.16395
upperneck 12.5734 5.29132 -1.00323
head 5.42915 2.53023 0.282159
rclavicle -4.61755e-014 -7.20594e-016
rhumerus -48.1586 4.88881 -82.7965
rradius 31.1609
rwrist 20.6717
rhand -1.87035 -52.5637
rfingers 7.12502
rthumb -156.202 98.8902
lclavicle -4.61755e-014 -7.20594e-016
lhumerus -25.4337 -14.6976 88.5873
lradius 57.2798
lwrist -2.077
lhand -9.65801 325.341
lfingers 7.12502
lthumb 16.313 -5.32522
rfemur -11.313 22.2205 23.1081
rtibia 27.3568
rfoot -27.1641 -30.8126
rtoes -0.610528
lfemur -11.6348 -21.9084 -23.177
ltibia 29.9347
lfoot -30.5492 21.4669
ltoes -12.8231
1829
root 8.70531 15.2134 41.1401 365.198 -186.282 -357.632
lowerback 5.92047 -1.5532 -0.686495
upperback -5.04697 -1.87868 1.65969
thorax -8.5669 -0.754599 2.3785
lowerneck -10.463 3.68522 -1.7632
upperneck 12.9602 5.56705 -0.689766
head 5.60486 2.65362 0.513018
rclavicle 1.89467e-014 2.23633e-015
rhumerus -47.2927 5.80842 -83.3441
rradius 31.2343
rwrist 21.0794
rhand -0.829581 -54.2578
rfingers 7.12502
rthumb -155.204 97.3296
lclavicle 1.89467e-014 2.23633e-015
lhumerus -26.3656 -14.7548 89.2114
lradius 57.1043
lwrist -2.63363
lhand -9.95006 325.37
lfingers 7.12502
lthumb 16.0317 -5.27303
rfemur -11.0858 22.3714 23.1875
rtibia 27.2453
rfoot -27.2236 -31.3454
rtoes 0.0870137
lfemur -11.6763 -22.0787 -23.1715
ltibia 30.0359
lfoot -30.4176 21.2393
ltoes -12.6419
1830
root 8.72688 15.2123 41.1391 365.162 -185.815 -357.668
lowerback 5.83517 -1.55758 -0.62
upperback -5.02831 -1.86934 1.73667
thorax -8.49657 -0.75129 2.4177
lowerneck -9.85326 3.84279 -1.40046
upperneck 12.3935 5.80724 -1.44988
head 5.35811 2.74921 0.215285
rclavicle 2.54506e-014 1.98785e-016
rhumerus -46.5681 6.55113 -83.7645
rradius 31.4192
rwrist 21.4102
rhand -1.27052 -54.686
rfingers 7.12502
rthumb -155.627 96.844
lclavicle 2.54506e-014 1.98785e-016
lhumerus -27.6055 -14.6902 89.9219
lradius 57.2012
lwrist -2.88062
lhand -10.5924 325.382
lfingers 7.12502
lthumb 15.4132 -5.21305
rfemur -10.9144 22.408 23.3082
rtibia 27.118
rfoot -27.3767 -31.5054
rtoes 0.896534
lfemur -11.7484 -22.5588 -23.1004
ltibia 30.1476
lfoot -30.4583 21.1731
ltoes -12.3863
1831
root 8.75107 15.2173 41.1399 365.282 -185.497 -357.584
lowerback 5.70592 -1.49251 -0.497072
upperback -5.1001 -1.7544 1.80058
thorax -8.50547 -0.695485 2.3985
lowerneck -9.77268 4.02179 -1.57071
upperneck 12.3982 6.06847 -1.36671
head 5.33833 2.87823 0.285829
rclavicle -5.79085e-014 1.5207e-014
rhumerus -45.9114 6.93215 -84.1351
rradius 31.6085
rwrist 21.9018
rhand -1.7044 -54.3491
rfingers 7.12502
rthumb -156.043 97.1256
lclavicle -5.79085e-014 1.5207e-014
lhumerus -28.7628 -14.7985 90.4492
lradius 57.2981
lwrist -2.92796
lhand -10.23 325.714
lfingers 7.12502
lthumb 15.7622 -4.90742
rfemur -10.9593 22.2781 23.4844
rtibia 27.0238
rfoot -27.4621 -31.3348
rtoes 2.13307
lfemur -11.9765 -22.7776 -22.82
ltibia 30.2326
lfoot -30.4205 21.0506
ltoes -12.434
1832
root 8.77485 15.2206 41.1393 365.357 -185.208 -357.45
lowerback 5.66333 -1.25968 -0.232184
upperback -5.17145 -1.42236 1.642
thorax -8.58235 -0.551596 2.03962
lowerneck -9.7312 4.10107 -1.02434
upperneck 12.4565 6.11394 -1.49741
head 5.36976 2.91604 0.161566
rclavicle 2.61992e-014 -2.30093e-014
rhumerus -45.2345 7.53335 -85.1215
rradius 31.3273
rwrist 21.2336
rhand -2.29351 -53.8604
rfingers 7.12502
rthumb -156.608 97.5411
lclavicle 2.61992e-014 -2.30093e-014
lhumerus -29.7825 -15.5292 90.8309
lradius 57.0317
lwrist -3.10913
lhand -9.8112 325.92
lfingers 7.12502
lthumb 16.1655 -4.73443
rfemur -10.9618 22.1381 23.7431
rtibia 26.9689
rfoot -27.229 -31.3888
rtoes 2.91549
lfemur -12.1615 -22.4532 -22.4865
ltibia 30.2875
lfoot -30.0726 20.8214
ltoes -14.5236
1833
root 8.79614 15.2182 41.136 365.107 -184.79 -357.49
lowerback 5.88197 -0.728204 0.200851
upperback -5.10894 -0.736859 0.941959
thorax -8.68072 -0.275487 0.971236
lowerneck -9.60523 3.85139 0.711894
upperneck 12.278 5.56975 -2.05534
head 5.35507 2.68691 -0.335721
rclavicle -1.06039e-014 -3.57812e-015
rhumerus -44.7701 5.82894 -85.6964
rradius 31.3189
rwrist 21.497
rhand -3.32915 -53.4283
rfingers 7.12502
rthumb -157.602 97.8503
lclavicle -1.06039e-014 -3.57812e-015
lhumerus -30.3354 -17.5318 91.0336
lradius 55.7753
lwrist -3.44751
lhand -10.058 325.598
lfingers 7.12502
lthumb 15.9278 -5.03699
rfemur -10.5524 21.942 23.9635
rtibia 26.9124
rfoot -27.139 -31.5212
rtoes 3.87546
lfemur -11.9732 -22.3345 -22.493
ltibia 30.3475
lfoot -29.9334 20.4309
ltoes -15.4784
1834
root 8.81762 15.2139 41.1281 364.714 -184.282 -357.683
lowerback 6.11251 -0.699888 0.170076
upperback -5.02299 -0.71337 0.902233
thorax -8.72345 -0.267405 0.946278
lowerneck -10.2512 4.16574 -0.0411249
upperneck 13.0722 6 -1.01281
head 5.6626 2.92727 0.167763
rclavicle -3.34952e-014 -4.37326e-015
rhumerus -44.1936 6.17009 -86.033
rradius 31.5374
rwrist 21.667
rhand -3.67472 -53.6252
rfingers 7.12502
rthumb -157.934 97.6138
lclavicle -3.34952e-014 -4.37326e-015
lhumerus -31.3311 -17.7089 91.5164
lradius 55.1237
lwrist -3.67491
lhand -10.0259 325.492
lfingers 7.12502
lthumb 15.9587 -5.14515
rfemur -9.93643 21.7338 24.0846
rtibia 26.8317
rfoot -27.2625 -31.7845
rtoes 5.29977
lfemur -11.6202 -22.1829 -22.719
ltibia 30.4464
lfoot -30.0769 19.5525
ltoes -13.7922
1835
root 8.83861 15.2107 41.1221 364.557 -183.743 -357.763
lowerback 6.12618 -0.691178 0.218405
upperback -4.9713 -0.698876 0.912758
thorax -8.676 -0.264309 0.928054
lowerneck -10.2912 4.45969 0.0103397
upperneck 13.1421 6.41314 -1.10486
head 5.69819 3.12587 0.166067
rclavicle 1.83627e-014 2.33572e-015
rhumerus -43.6323 7.16405 -86.7339
rradius 32.0452
rwrist 20.8448
rhand -3.15187 -54.2243
rfingers 7.12502
rthumb -157.432 97.0749
lclavicle 1.83627e-014 2.33572e-015
lhumerus -32.1514 -17.7397 91.8957
lradius 54.2811
lwrist -3.73539
lhand -9.49609 325.342
lfingers 7.12502
lthumb 16.4689 -5.33663
rfemur -9.59571 21.7277 24.2343
rtibia 26.7244
rfoot -27.1847 -32.4054
rtoes 6.30472
lfemur -11.583 -21.8903 -22.7104
ltibia 30.5701
lfoot -30.0346 18.7874
ltoes -12.9008
1836
root 8.85601 15.2103 41.1212 364.569 -183.21 -357.691
lowerback 6.10163 -0.702199 0.44997
upperback -4.96739 -0.689188 0.909154
thorax -8.66059 -0.273219 0.79246
lowerneck -10.2976 4.81213 0.469034
upperneck 13.2005 6.88484 -1.48626
head 5.75028 3.35194 0.0140218
rclavicle 5.04727e-015 8.44835e-015
rhumerus -43.1094 8.4716 -87.7711
rradius 32.6477
rwrist 19.3846
rhand -2.44533 -55.8589
rfingers 7.12502
rthumb -156.754 95.5242
lclavicle 5.04727e-015 8.44835e-015
lhumerus -32.8596 -17.595 92.0782
lradius 53.3476
lwrist -3.90974
lhand -8.94821 325.132
lfingers 7.12502
lthumb 16.9963 -5.59181
rfemur -9.48269 21.6229 24.4398
rtibia 26.5693
rfoot -27.0602 -32.8209
rtoes 7.31938
lfemur -11.8095 -21.7451 -22.4786
ltibia 30.7304
lfoot -29.7117 18.4109
ltoes -14.1715
1837
root 8.87548 15.2215 41.1347 365.008 -184.23 -357.459
lowerback 5.87648 -0.12045 0.658591
upperback -5.17225 0.134838 0.924821
thorax -8.75862 0.125223 0.579899
lowerneck -9.99544 5.12574 0.561873
upperneck 13.1775 7.31453 -1.51856
head 5.70065 3.57173 0.0152901
rclavicle 5.05658e-015 -3.18055e-015
rhumerus -42.6191 9.01655 -88.1986
rradius 32.945
rwrist 18.9806
rhand -2.31491 -56.8218
rfingers 7.12502
rthumb -156.629 94.5771
lclavicle 5.05658e-015 -3.18055e-015
lhumerus -33.7466 -17.5886 92.4037
lradius 52.4364
lwrist -4.32747
lhand -8.86842 325.155
lfingers 7.12502
lthumb 17.0731 -5.57497
rfemur -10.195 21.2921 24.3474
rtibia 26.3756
rfoot -25.7847 -31.8066
rtoes 6.24242
lfemur -12.3715 -21.1308 -22.0878
ltibia 30.9223
lfoot -29.6962 18.929
ltoes -15.767
1838
root 8.90025 15.2231 41.1324 365.006 -183.457 -357.477
lowerback 5.75475 -0.161449 0.799046
upperback -5.12998 0.0907391 0.915489
thorax -8.64062 0.0948527 0.496601
lowerneck -9.91528 5.48439 0.666557
upperneck 13.0554 7.79525 -1.60652
head 5.66157 3.80693 0.00529259
rclavicle 1.29862e-014 -6.06293e-015
rhumerus -41.7426 9.19055 -88.1688
rradius 32.9704
rwrist 19.7867
rhand -2.48758 -55.6009
rfingers 7.12502
rthumb -156.794 95.7771
lclavicle 1.29862e-014 -6.06293e-015
lhumerus -34.4567 -17.2396 92.6399
lradius 51.4181
lwrist -5.00401
lhand -8.8275 325.188
lfingers 7.12502
lthumb 17.1125 -5.54544
rfemur -9.94373 21.28 24.5835
rtibia 26.1741
rfoot -25.9519 -32.3098
rtoes 7.84693
lfemur -12.5997 -21.0002 -21.8765
ltibia 31.0882
lfoot -28.9187 18.9497
ltoes -19.6281
1839
root 8.93765 15.2261 41.1495 364.847 -182.439 -357.594
lowerback 6.13849 -0.27202 0.566637
upperback -5.22838 -0.0717087 0.926208
thorax -8.97316 0.0314322 0.662065
lowerneck -9.47948 5.79441 1.0079
upperneck 12.953 8.20273 -1.78385
head 5.58217 4.01981 -0.0862859
rclavicle 2.59662e-015 -3.08116e-015
rhumerus -41.1919 9.45647 -88.284
rradius 33.0897
rwrist 20.2969
rhand -2.48649 -53.8747
rfingers 7.12502
rthumb -156.793 97.5034
lclavicle 2.59662e-015 -3.08116e-015
lhumerus -35.0824 -16.6745 92.8469
lradius 49.949
lwrist -5.93383
lhand -8.78682 324.626
lfingers 7.12502
lthumb 17.1516 -6.11131
rfemur -9.54275 21.4252 24.8279
rtibia 25.992
rfoot -26.4469 -33.0196
rtoes 10.821
lfemur -12.8015 -20.328 -21.7106
ltibia 31.2411
lfoot -27.9636 18.2935
ltoes -23.9765
1840
root 8.95189 15.2321 41.1278 364.928 -182.769 -357.579
lowerback 5.783 0.106483 0.73636
upperback -5.27269 0.453829 0.852279
thorax -8.81359 0.278221 0.416549
lowerneck -9.29301 6.054 1.43782
upperneck 13.0336 8.55964 -2.0939
head 5.61362 4.19973 -0.224681
rclavicle 7.11898e-015 6.21202e-015
rhumerus -40.735 9.72856 -88.4631
rradius 33.2736
rwrist 20.197
rhand -2.60217 -52.8686
rfingers 7.12502
rthumb -156.904 98.4956
lclavicle 7.11898e-015 6.21202e-015
lhumerus -34.8708 -16.3798 92.9578
lradius 47.7324
lwrist -6.65248
lhand -8.64908 324.057
lfingers 7.12502
lthumb 17.2842 -6.6919
rfemur -9.52917 21.4141 24.8211
rtibia 25.8423
rfoot -26.2196 -32.7024
rtoes 10.872
lfemur -12.8363 -19.8323 -21.6911
ltibia 31.3879
lfoot -27.94 18.3223
ltoes -25.004
1841
root 8.97449 15.2285 41.1245 364.761 -181.709 -357.584
lowerback 5.98231 0.0505477 1.01951
upperback -5.28107 0.402225 0.769493
thorax -8.93847 0.231155 0.176426
lowerneck -9.21151 6.33918 1.85008
upperneck 13.0911 8.94996 -2.40515
head 5.65834 4.39251 -0.35444
rclavicle -1.53748e-015 -6.5102e-015
rhumerus -40.2302 10.0539 -88.7287
rradius 33.5911
rwrist 19.8848
rhand -2.71705 -52.8272
rfingers 7.12502
rthumb -157.015 98.5232
lclavicle -1.53748e-015 -6.5102e-015
lhumerus -35.5975 -16.2275 92.9323
lradius 46.6238
lwrist -6.86954
lhand -7.58887 324.08
lfingers 7.12502
lthumb 18.3044 -6.76163
rfemur -9.13294 21.2268 25.1318
rtibia 25.7587
rfoot -26.7533 -33.3957
rtoes 11.2948
lfemur -12.8789 -19.891 -21.5335
ltibia 31.5171
lfoot -27.3913 17.9585
ltoes -27.7061
